<mxfile host="app.diagrams.net" agent="Mozilla/5.0 (X11; Linux x86_64) AppleWebKit/537.36 (KHTML, like Gecko) Chrome/130.0.6723.712 YaBrowser/24.12.1.712 Yowser/2.5 Safari/537.36" version="25.0.3">
  <diagram name="Page-1" id="efa7a0a1-bf9b-a30e-e6df-94a7791c09e9">
    <mxGraphModel dx="1910" dy="1503" grid="1" gridSize="10" guides="1" tooltips="1" connect="1" arrows="1" fold="1" page="1" pageScale="1" pageWidth="827" pageHeight="1169" background="none" math="0" shadow="0">
      <root>
        <mxCell id="0" />
        <mxCell id="1" parent="0" />
        <mxCell id="22" value="&lt;p style=&quot;margin: 4px 0px 0px; text-align: center; text-decoration: underline; line-height: 140%;&quot;&gt;&lt;strong&gt;payment&lt;/strong&gt;&lt;/p&gt;&lt;hr&gt;&lt;p style=&quot;margin: 0px 0px 0px 8px; line-height: 140%;&quot;&gt;payment_id&lt;/p&gt;&lt;p style=&quot;margin: 0px 0px 0px 8px; line-height: 140%;&quot;&gt;user_id&lt;/p&gt;&lt;p style=&quot;margin: 0px 0px 0px 8px; line-height: 140%;&quot;&gt;product_id&lt;/p&gt;&lt;p style=&quot;margin: 0px 0px 0px 8px; line-height: 140%;&quot;&gt;amount&lt;/p&gt;" style="verticalAlign=top;align=left;overflow=fill;fontSize=12;fontFamily=Helvetica;html=1;strokeColor=#003366;shadow=1;fillColor=#D4E1F5;fontColor=#003366" parent="1" vertex="1">
          <mxGeometry x="339.9999999999999" y="50.00000000000006" width="160.0000000000001" height="180" as="geometry" />
        </mxCell>
        <mxCell id="29" value="&lt;p style=&quot;text-align: center; margin: 4px 0px 0px; text-decoration: underline;&quot;&gt;&lt;strong&gt;user&lt;/strong&gt;&lt;/p&gt;&lt;hr style=&quot;text-align: center;&quot;&gt;&lt;p style=&quot;margin: 0px 0px 0px 8px; line-height: 140%;&quot;&gt;user_id&lt;/p&gt;&lt;p style=&quot;margin: 0px 0px 0px 8px; line-height: 140%;&quot;&gt;telegram_id&lt;/p&gt;&lt;p style=&quot;margin: 0px 0px 0px 8px; line-height: 140%;&quot;&gt;name&lt;/p&gt;&lt;p style=&quot;margin: 0px 0px 0px 8px; line-height: 140%;&quot;&gt;surname&lt;/p&gt;&lt;p style=&quot;margin: 0px 0px 0px 8px; line-height: 140%;&quot;&gt;lichess_rating&lt;/p&gt;&lt;p style=&quot;margin: 0px 0px 0px 8px; line-height: 140%;&quot;&gt;chesscom_rating&lt;/p&gt;&lt;p style=&quot;margin: 0px 0px 0px 8px; line-height: 140%;&quot;&gt;rep_rating&lt;/p&gt;&lt;p style=&quot;margin: 0px 0px 0px 8px; line-height: 140%;&quot;&gt;first_contact&lt;/p&gt;&lt;p style=&quot;margin: 0px 0px 0px 8px; line-height: 140%;&quot;&gt;last_contact&lt;/p&gt;&lt;p&gt;&lt;/p&gt;" style="verticalAlign=top;align=left;overflow=fill;fontSize=12;fontFamily=Helvetica;html=1;strokeColor=#003366;shadow=1;fillColor=#D4E1F5;fontColor=#003366;rounded=0;" parent="1" vertex="1">
          <mxGeometry x="70.00000000000023" y="50.00000000000074" width="160" height="200" as="geometry" />
        </mxCell>
        <mxCell id="48" value="" style="endArrow=ERzeroToMany;endSize=12;startArrow=ERone;startSize=14;startFill=0;edgeStyle=orthogonalEdgeStyle;exitX=1.003;exitY=0.167;rounded=1;endFill=0;exitDx=0;exitDy=0;exitPerimeter=0;curved=0;entryX=0.004;entryY=0.327;entryDx=0;entryDy=0;entryPerimeter=0;" parent="1" source="29" target="22" edge="1">
          <mxGeometry x="769.3599999999999" y="450" as="geometry">
            <mxPoint x="259.3599999999999" y="-31.95999999999998" as="sourcePoint" />
            <mxPoint x="419.3599999999999" y="-31.95999999999998" as="targetPoint" />
          </mxGeometry>
        </mxCell>
        <mxCell id="5uWqrF2Foy9CV195pzKy-121" style="edgeStyle=orthogonalEdgeStyle;rounded=0;orthogonalLoop=1;jettySize=auto;html=1;exitX=0;exitY=0.25;exitDx=0;exitDy=0;entryX=1;entryY=0.25;entryDx=0;entryDy=0;endSize=12;startSize=14;endArrow=ERzeroToMany;endFill=0;startArrow=ERone;startFill=0;" edge="1" parent="1" source="5uWqrF2Foy9CV195pzKy-116" target="5uWqrF2Foy9CV195pzKy-117">
          <mxGeometry relative="1" as="geometry" />
        </mxCell>
        <mxCell id="5uWqrF2Foy9CV195pzKy-116" value="&lt;p style=&quot;margin: 4px 0px 0px; text-align: center; text-decoration: underline; line-height: 140%;&quot;&gt;&lt;strong&gt;tournament&lt;/strong&gt;&lt;/p&gt;&lt;hr&gt;&lt;p style=&quot;margin: 0px 0px 0px 8px; line-height: 140%;&quot;&gt;tournament_id&lt;/p&gt;&lt;p style=&quot;margin: 0px 0px 0px 8px; line-height: 140%;&quot;&gt;date&lt;/p&gt;&lt;p style=&quot;margin: 0px 0px 0px 8px; line-height: 140%;&quot;&gt;address&lt;/p&gt;&lt;p style=&quot;margin: 0px 0px 0px 8px; line-height: 140%;&quot;&gt;description&lt;/p&gt;" style="verticalAlign=top;align=left;overflow=fill;fontSize=12;fontFamily=Helvetica;html=1;strokeColor=#003366;shadow=1;fillColor=#D4E1F5;fontColor=#003366" vertex="1" parent="1">
          <mxGeometry x="339.9999999999999" y="308.04" width="160.0000000000001" height="180" as="geometry" />
        </mxCell>
        <mxCell id="5uWqrF2Foy9CV195pzKy-117" value="&lt;p style=&quot;margin: 4px 0px 0px; text-align: center; text-decoration: underline; line-height: 140%;&quot;&gt;&lt;b&gt;game&lt;/b&gt;&lt;/p&gt;&lt;hr&gt;&lt;p style=&quot;margin: 0px 0px 0px 8px; line-height: 140%;&quot;&gt;game_id&lt;/p&gt;&lt;p style=&quot;margin: 0px 0px 0px 8px; line-height: 140%;&quot;&gt;tournament_id&lt;/p&gt;&lt;p style=&quot;margin: 0px 0px 0px 8px; line-height: 140%;&quot;&gt;while_user_id&lt;/p&gt;&lt;p style=&quot;margin: 0px 0px 0px 8px; line-height: 140%;&quot;&gt;black_user_id&lt;/p&gt;&lt;p style=&quot;margin: 0px 0px 0px 8px; line-height: 140%;&quot;&gt;round&lt;/p&gt;&lt;p style=&quot;margin: 0px 0px 0px 8px; line-height: 140%;&quot;&gt;result&lt;/p&gt;&lt;p style=&quot;margin: 0px 0px 0px 8px; line-height: 140%;&quot;&gt;&lt;br&gt;&lt;/p&gt;" style="verticalAlign=top;align=left;overflow=fill;fontSize=12;fontFamily=Helvetica;html=1;strokeColor=#003366;shadow=1;fillColor=#D4E1F5;fontColor=#003366" vertex="1" parent="1">
          <mxGeometry x="69.99999999999989" y="308.04" width="160.0000000000001" height="180" as="geometry" />
        </mxCell>
        <mxCell id="5uWqrF2Foy9CV195pzKy-120" style="edgeStyle=orthogonalEdgeStyle;rounded=1;orthogonalLoop=1;jettySize=auto;html=1;curved=0;startArrow=ERone;startFill=0;endSize=12;startSize=14;endArrow=ERzeroToMany;endFill=0;" edge="1" parent="1">
          <mxGeometry relative="1" as="geometry">
            <mxPoint x="70" y="88.04000000000002" as="sourcePoint" />
            <mxPoint x="70" y="398.04" as="targetPoint" />
            <Array as="points">
              <mxPoint x="30" y="88.04000000000002" />
              <mxPoint x="30" y="398.04" />
              <mxPoint x="70" y="398.04" />
            </Array>
          </mxGeometry>
        </mxCell>
        <mxCell id="5uWqrF2Foy9CV195pzKy-123" style="edgeStyle=orthogonalEdgeStyle;rounded=0;orthogonalLoop=1;jettySize=auto;html=1;exitX=0;exitY=0.25;exitDx=0;exitDy=0;entryX=1;entryY=0.25;entryDx=0;entryDy=0;startArrow=ERone;startFill=0;endSize=12;startSize=14;endArrow=ERzeroToMany;endFill=0;" edge="1" parent="1" source="5uWqrF2Foy9CV195pzKy-122" target="22">
          <mxGeometry relative="1" as="geometry" />
        </mxCell>
        <mxCell id="5uWqrF2Foy9CV195pzKy-122" value="&lt;p style=&quot;margin: 4px 0px 0px; text-align: center; text-decoration: underline; line-height: 140%;&quot;&gt;&lt;strong&gt;product&lt;/strong&gt;&lt;/p&gt;&lt;hr&gt;&lt;p style=&quot;margin: 0px 0px 0px 8px; line-height: 140%;&quot;&gt;product_id&lt;/p&gt;&lt;p style=&quot;margin: 0px 0px 0px 8px; line-height: 140%;&quot;&gt;description&lt;/p&gt;" style="verticalAlign=top;align=left;overflow=fill;fontSize=12;fontFamily=Helvetica;html=1;strokeColor=#003366;shadow=1;fillColor=#D4E1F5;fontColor=#003366" vertex="1" parent="1">
          <mxGeometry x="610" y="50.00000000000006" width="160.0000000000001" height="180" as="geometry" />
        </mxCell>
      </root>
    </mxGraphModel>
  </diagram>
</mxfile>
